<svg id="Layer_1" data-name="Layer 1" xmlns="http://www.w3.org/2000/svg" viewBox="0 0 413.46 64.87"><defs><style>.cls-1{fill:#fff;}</style></defs><title>ss</title><path class="cls-1" d="M-4352.07-2461.51a0.38,0.38,0,0,0,.28.13,0.37,0.37,0,0,0,.24-0.09s4-3.59,7.25-4c0.17,0,.31.48,0.34-0.52h0a0.39,0.39,0,0,0-.31-0.22,1.11,1.11,0,0,0-.1.1,7.47,7.47,0,0,0-.81.2,1.2,1.2,0,0,1-1.05-.19l-1.9-1.42a0.69,0.69,0,0,0-.52-0.16c-2.19.22-4,2.81-4.51,3.67a0.55,0.55,0,0,0,0,.56C-4352.83-2462.8-4352.1-2461.54-4352.07-2461.51Z" transform="translate(4363.46 2467.68)"/><path class="cls-1" d="M-4321.47-2462a0.83,0.83,0,0,0-.94-0.51c-3.73.75-18.13,3.77-20.84,4.37a0.42,0.42,0,0,0-.33.48,2.42,2.42,0,0,1-.21,1.28c-0.8,1.71-3.58,2.06-6.19.86l-0.47-.24a0.75,0.75,0,0,0-.65,0l-1,.44c-1.71.82-4.37,2.07-5.47,3.62l-5.55,7.14-0.07.1a1.67,1.67,0,0,0,.49,2.31l9.9,6.28a0.88,0.88,0,0,0,1-.14,0.88,0.88,0,0,0,0-1.25l-5.21-5.41-0.08-.09a1,1,0,0,1,.21-1.46l2.9-2.53a0.7,0.7,0,0,1,.2-0.14,0.68,0.68,0,0,1,.9.34l1.27,2.08a16.71,16.71,0,0,1,2,10.76l-3.28,20.53a1.41,1.41,0,0,0,0,.16,1.31,1.31,0,0,0,.82,1.2,1.31,1.31,0,0,0,1.71-.72l7-20a1.36,1.36,0,0,1,.77-0.81,1.36,1.36,0,0,1,1.77.75l8.13,20.23a1.33,1.33,0,0,0,1.21.73,1.35,1.35,0,0,0,.43-0.07,1.33,1.33,0,0,0,.86-1.59l-8.73-38.13a1.85,1.85,0,0,1,1.21-1.9c3.41-1.29,12.52-6.09,15.85-7.62a0.82,0.82,0,0,0,.43-1h0Z" transform="translate(4363.46 2467.68)"/><path class="cls-1" d="M-4310.26-2439.24c0-2.14,1.82-3.53,5-3.53a15.32,15.32,0,0,1,10.38,3.91l4.23-5.67c-3.53-3.26-8.24-5-13.9-5-8.4,0-13.53,4.92-13.53,10.86,0,13.42,20.54,9.09,20.54,15.29,0,2.09-2,4-6.2,4a15.67,15.67,0,0,1-11.34-4.87l-4.17,5.94c3.37,3.37,8.29,5.67,15.19,5.67,9.57,0,14.28-4.92,14.28-11.44C-4289.78-2437.42-4310.26-2433.62-4310.26-2439.24Z" transform="translate(4363.46 2467.68)"/><path class="cls-1" d="M-4273-2439.77a13.22,13.22,0,0,0-13.42,13.53c0,8.29,5.91,13.58,13.77,13.58,4,0,8.06-1.23,10.63-3.58l-3.05-4.49a10.8,10.8,0,0,1-6.85,2.51c-4.39,0-7-2.78-7.44-5.78h19.4v-1.6C-4260-2434-4265.29-2439.77-4273-2439.77Zm-6.41,10.77a6.37,6.37,0,0,1,6.31-5.51,6.22,6.22,0,0,1,6.42,5.51h-12.73Z" transform="translate(4363.46 2467.68)"/><path class="cls-1" d="M-4248-2435.65V-2439h-7v26h7v-17.36c1-1.66,4-2.94,6.25-2.94a11.64,11.64,0,0,1,1.75.16v-6.63C-4243-2439.77-4247-2437.9-4248-2435.65Z" transform="translate(4363.46 2467.68)"/><polygon class="cls-1" points="137.75 46.65 131.01 28.68 123.74 28.68 134.11 54.68 141.44 54.68 151.82 28.68 144.54 28.68 137.75 46.65"/><rect class="cls-1" x="154.46" y="28.68" width="7" height="26"/><path class="cls-1" d="M-4205.23-2450a4,4,0,0,0-4,4,4.05,4.05,0,0,0,4,4.06,4.06,4.06,0,0,0,4.06-4.06A4,4,0,0,0-4205.23-2450Z" transform="translate(4363.46 2467.68)"/><path class="cls-1" d="M-4182.72-2433.73a6.27,6.27,0,0,1,5.46,2.78l4.44-4.17c-1.71-2.35-4.92-4.65-10.22-4.65-7.92,0-13.69,5.62-13.69,13.53s5.78,13.58,13.69,13.58c5.29,0,8.5-2.35,10.22-4.71l-4.44-4.17a6.43,6.43,0,0,1-5.46,2.83c-4.12,0-7-3-7-7.54S-4186.84-2433.73-4182.72-2433.73Z" transform="translate(4363.46 2467.68)"/><path class="cls-1" d="M-4156.81-2439.77c-7.81,0-13.3,6-13.3,13.53,0,8.29,6,13.58,13.83,13.58,4,0,8.09-1.23,10.66-3.58l-3-4.49a10.78,10.78,0,0,1-6.84,2.51c-4.39,0-6.95-2.78-7.43-5.78H-4144v-1.6C-4144-2434-4149.06-2439.77-4156.81-2439.77ZM-4163-2429a6.36,6.36,0,0,1,6.31-5.51,6.22,6.22,0,0,1,6.42,5.51H-4163Z" transform="translate(4363.46 2467.68)"/><path class="cls-1" d="M-4132.13-2439.24c0-2.14,1.82-3.53,5-3.53a15.32,15.32,0,0,1,10.38,3.91l4.23-5.67c-3.53-3.26-8.24-5-13.9-5-8.4,0-13.53,4.92-13.53,10.86,0,13.42,20.54,9.09,20.54,15.29,0,2.09-2,4-6.2,4a15.67,15.67,0,0,1-11.34-4.87l-4.17,5.94c3.37,3.37,8.29,5.67,15.19,5.67,9.57,0,14.28-4.92,14.28-11.44C-4111.65-2437.42-4132.13-2433.62-4132.13-2439.24Z" transform="translate(4363.46 2467.68)"/><path class="cls-1" d="M-4095-2439.77a13.19,13.19,0,0,0-13.39,13.53c0,8.29,5.93,13.58,13.79,13.58,4,0,8.07-1.23,10.64-3.58l-3.05-4.49a10.8,10.8,0,0,1-6.85,2.51c-4.38,0-7-2.78-7.44-5.78H-4082v-1.6C-4082-2434-4087.23-2439.77-4095-2439.77Zm-6.35,10.77a6.37,6.37,0,0,1,6.31-5.51,6.23,6.23,0,0,1,6.42,5.51h-12.73Z" transform="translate(4363.46 2467.68)"/><path class="cls-1" d="M-4065.7-2439.77c-7.81,0-13.25,6-13.25,13.53,0,8.29,6,13.58,13.86,13.58,4,0,8.11-1.23,10.67-3.58l-3-4.49a10.77,10.77,0,0,1-6.84,2.51c-4.39,0-6.94-2.78-7.43-5.78H-4053v-1.6C-4053-2434-4057.94-2439.77-4065.7-2439.77Zm-6.06,10.77a6.36,6.36,0,0,1,6.31-5.51A6.23,6.23,0,0,1-4059-2429h-12.73Z" transform="translate(4363.46 2467.68)"/><polygon class="cls-1" points="340.8 28.68 332.45 28.68 322.46 40.05 322.46 18.68 315.46 18.68 315.46 54.68 322.46 54.68 322.46 47.75 325.67 44.58 332.62 54.68 341.12 54.68 330.58 40.48 340.8 28.68"/><path class="cls-1" d="M-4015.56-2450a4,4,0,0,0-4,4,4.05,4.05,0,0,0,4,4.06,4.06,4.06,0,0,0,4.06-4.06A4,4,0,0,0-4015.56-2450Z" transform="translate(4363.46 2467.68)"/><rect class="cls-1" x="344.46" y="28.68" width="7" height="26"/><path class="cls-1" d="M-3989.71-2439.77a13.36,13.36,0,0,0-9.29,4V-2439h-6v26h6v-17.73c2-1.5,3.39-3,6.06-3,2.89,0,4.94,1.23,4.94,4.81V-2413h7v-18.53C-3981-2436.56-3984-2439.77-3989.71-2439.77Z" transform="translate(4363.46 2467.68)"/><path class="cls-1" d="M-3957-2435.81a9.49,9.49,0,0,0-7.86-4c-6.52,0-11.31,4.71-11.31,13.16,0,8.61,4.85,13.1,11.27,13.1a9.76,9.76,0,0,0,7.9-4v2.51c0,5.24-3.74,6.63-7,6.63a10.31,10.31,0,0,1-8-3.16l-3,4.87c3.26,2.83,6.7,3.85,11.09,3.85,6.36,0,13.92-2.41,13.92-12.19v-24h-7v3.19Zm0,13.37a7.1,7.1,0,0,1-5.67,2.94c-3.9,0-6.5-2.67-6.5-7.11s2.55-7.11,6.46-7.11a7.13,7.13,0,0,1,5.71,2.89v8.4Z" transform="translate(4363.46 2467.68)"/></svg>